#!OML:ASF F:\VICON\USERDATA\INSTALL\rory3\rory3.ASF
:FULLY-SPECIFIED
:DEGREES
64
root -0.31729555700336376 17.28235155183288 9.661832180789416 1.6674708046019693 4.612415353096249 -1.328358983150484
lfemur -24.108164003002223 0.5687987730585928 -24.864887621906547
ltibia 41.68836215501347
lfoot -15.297076008795845 -4.66138986160055
ltoes 0.8591772896371364
rfemur -9.341069186708117 -1.430134544718285 25.163751752025618
rtibia 101.55287191710809
rfoot 14.604978248501851 -10.309305641751594
rtoes 18.757815378817423
lowerback 16.480142930908876 2.361847230732709 0.27963108071851583
upperback -0.3153239272351823 3.204539411406002 0.1316207389769517
thorax -9.775446165581632 1.500013429303168 -0.7614542559040923
lowerneck -20.263668577118086 -4.954776983346063 -2.037443504935276
upperneck 13.083338263275033 -6.9204474093251065 4.196644675014366
head 7.634779487194217 -2.986780285958404 0.9951364246744463
lclavicle -1.7651634219591937e-15 1.7568791660357775e-15
lhumerus -57.196927591518765 -11.594874527293875 99.19998741389347
lradius 106.73070374742177
lwrist 31.807515878357584
lhand -25.844383341220485 3.5765268021711942
lfingers 7.12502
lthumb 0.6960534946038786 33.549855065436326
rclavicle -1.7651634219591937e-15 1.7568791660357775e-15
rhumerus -45.74386945690183 10.015471970862283 -99.65549384796923
rradius 101.61377507669921
rwrist -7.8955767500755805
rhand -18.16275443578713 38.77050415991308
rfingers 7.12502
rthumb 8.112479276801075 8.950748617470552
65
root -0.35692517703437854 17.058637602619395 6.49502510880839 1.7784098212618464 4.4176077947336765 -0.32609983584690294
lfemur -22.415853460601188 0.31446938019174625 -26.094758146774467
ltibia 44.80330615097665
lfoot -20.19364095077829 -1.8022282012833557
ltoes 1.786795332485223
rfemur -15.881350518795092 -3.183977513100666 22.849289171296096
rtibia 110.08412856666558
rfoot 12.879332562540323 -10.002976871721707
rtoes 19.49631469694163
lowerback 17.017733653520764 2.227234693599204 -1.1422230749585067
upperback -0.0730894925230261 2.743362973922979 -0.2144724694595599
thorax -9.96850844895651 1.3409764055986435 -0.10266429120755116
lowerneck -20.614469878160826 -4.8821206290283445 -1.9627191953384322
upperneck 12.726145871758629 -6.862044694020245 4.394368793236385
head 7.574803829294198 -2.9311764147358597 1.067883484745693
lclavicle -2.0139093284322803e-15 1.5765703562988475e-15
lhumerus -52.94756493974531 -13.875061489399897 99.73155942535062
lradius 105.1913780057626
lwrist 31.91436047609256
lhand -26.054520858200256 4.058618487851311
lfingers 7.12502
lthumb 0.49311466444212626 34.029988312948596
rclavicle -2.0139093284322803e-15 1.5765703562988475e-15
rhumerus -47.04745716931586 8.48745313129229 -100.4565251588198
rradius 99.77125197079721
rwrist -7.8148061787360765
rhand -18.2134759571143 38.708552995497385
rfingers 7.12502
rthumb 8.063390655430968 8.85458937282105
66
root -0.38157037734971 16.90866133109334 4.136113700594089 2.158261631611093 4.225649478903434 0.6511897677342486
lfemur -19.529160460388848 0.13575957798801436 -26.968120690458413
ltibia 47.89091357568476
lfoot -23.94657078643071 1.1965274279647398
ltoes 1.4587091327364838
rfemur -22.39951829673508 -4.676097186396358 21.05833732288304
rtibia 117.7036487274953
rfoot 11.604405579577646 -9.210559257200863
rtoes 20.14003632556082
lowerback 17.4759302482168 2.0638634998829954 -2.3368107295222815
upperback 0.09750244855614754 2.2750678615865096 -0.4360415330156413
thorax -10.126276517421767 1.173411243714122 0.6992047716552835
lowerneck -20.89796564800997 -4.725813849173298 -1.879948006859068
upperneck 12.459889045598626 -6.678387285128245 4.5924363423342225
head 7.532628524392941 -2.8204910423892087 1.1495606134264889
lclavicle -1.4342158908346764e-15 1.9971608951567456e-15
lhumerus -47.9274273933158 -16.031260699751357 100.16739994432457
lradius 104.38467700918955
lwrist 32.18289461528572
lhand -26.09433959241051 4.379609174798338
lfingers 7.12502
lthumb 0.4546607534327485 34.34843879718138
rclavicle -1.4342158908346764e-15 1.9971608951567456e-15
rhumerus -48.42851278458365 7.25980423525985 -100.9809252415292
rradius 98.75296327175649
rwrist -7.946265798352739
rhand -18.060882039171574 38.763306320436264
rfingers 7.12502
rthumb 8.210542797490781 8.894185711872101
67
root -0.39686367580909787 16.82283573944393 1.7386455096438267 2.644750430618159 3.905461669575986 1.3759009241044327
lfemur -16.371561866736734 -0.07715738814628104 -27.67786747985602
ltibia 49.18703045477004
lfoot -26.64311727173236 3.6074790794913776
ltoes -0.6285831104608359
rfemur -29.38842279047077 -5.941732798438448 19.744570296295738
rtibia 122.82565034856987
rfoot 10.18934943127653 -8.373182450526325
rtoes 19.969740247201266
lowerback 17.750917312740565 1.8028211719912535 -3.357644000900004
upperback 0.1512644288088445 1.7128083542810384 -0.5559622321653555
thorax -10.264005767001217 0.9596042641702242 1.4605753913804118
lowerneck -21.135140468490988 -4.539812485053919 -1.82124489847291
upperneck 12.225172331772441 -6.4446690399479705 4.712258885474046
head 7.488246587798499 -2.6927162854850004 1.2132668988899882
lclavicle -1.2539356256806276e-15 2.127987402772086e-15
lhumerus -43.207948171764 -18.01985270928225 100.2978067082968
lradius 104.27414361887922
lwrist 32.46660649921223
lhand -26.043511430839857 4.293959018086293
lfingers 7.12502
lthumb 0.5037448805164135 34.26070937188621
rclavicle -1.2539356256806276e-15 2.127987402772086e-15
rhumerus -50.28136965522452 6.297651781529423 -101.4004174943853
rradius 98.41901132729328
rwrist -8.460518544158326
rhand -17.783881881499344 38.862123138681646
rfingers 7.12502
rthumb 8.477805315613585 8.99074051008838
